# xmcd
#
# Track frame offsets:
# 150
# 14981
# 39648
# 66845
# 85954
# 102176
# 124211
# 140645
# 153892
# 174159
# 188741
# 205686
# 222418
# 235535
# 249392
# 274674
# 290371
#
# Disc length: 4034 seconds
#
#
# Revision: 4
# Processed by: cddbd v1.5.1PL2 Copyright (c) Steve Scherf et al.
# Submitted via: FreeRIP 2.944 
#
DISCID=f20fc011
DTITLE=Lou Ann Barton - Sugar Coated Love
DYEAR=1999
DGENRE=Bluesrock
TTITLE0=Someday
TTITLE1=He's Gotta Use His Head To Turn Me On
TTITLE2=I Feel Like Breaking Up Somebody's Home
TTITLE3=Diving Duck
TTITLE4=Young and Dumb
TTITLE5=Rock'N'Roll 800
TTITLE6=Not Even Me
TTITLE7=Te Ni Nee Ni Nu
TTITLE8=Shake a Hand
TTITLE9=I'll Change That Too
TTITLE10=Scratch My Back
TTITLE11=Natural Born Lover
TTITLE12=You Can Have My Husband
TTITLE13=Oh, Yeah
TTITLE14=I Wonder Why
TTITLE15=Sugar Coated Love
TTITLE16=Te Ni Nee Ni Nu (second version)
EXTD=
EXTT0=
EXTT1=
EXTT2=
EXTT3=
EXTT4=
EXTT5=
EXTT6=
EXTT7=
EXTT8=
EXTT9=
EXTT10=
EXTT11=
EXTT12=
EXTT13=
EXTT14=
EXTT15=
EXTT16=
PLAYORDER=
